<?xml version="1.0" encoding="UTF-8"?>
<svg version="1.1" xmlns="http://www.w3.org/2000/svg" width="512" height="512">
<path d="M0 0 C23.44519693 17.05661002 23.44519693 17.05661002 25.27734375 26.6484375 C25.20957622 32.54421292 24.86225813 36.29367152 20.74609375 40.8671875 C16.71280411 44.41159354 13.30268036 44.98269302 7.9765625 45.1953125 C2.11792147 44.33344587 -1.67836365 40.76048933 -5.75390625 36.7421875 C-17.97633725 25.15215127 -31.57890939 17.13079575 -48.82641602 17.33007812 C-66.90734167 18.15423382 -80.91104797 29.44062497 -92.88671875 42.04296875 C-101.01579342 50.99703528 -107.10770388 61.51263178 -113.25390625 71.8671875 C-112.30475342 72.09269287 -111.35560059 72.31819824 -110.37768555 72.55053711 C-90.85694611 77.21001671 -71.7362827 82.24427452 -52.84228516 89.0703125 C-48.44506389 90.42406936 -44.71792846 91.49038977 -40.35546875 89.6796875 C-39.28546631 89.25514282 -39.28546631 89.25514282 -38.19384766 88.82202148 C-37.42991699 88.50692627 -36.66598633 88.19183105 -35.87890625 87.8671875 C-15.26194186 79.87544451 6.00957192 74.78050329 27.74609375 70.8671875 C28.74511719 70.68639648 29.74414062 70.50560547 30.7734375 70.31933594 C56.03914956 65.96108725 84.62278394 65.33731363 109.74609375 70.8671875 C110.5026123 71.02815918 111.25913086 71.18913086 112.03857422 71.35498047 C136.48305885 76.76342011 159.57982519 89.36856007 173.55859375 110.6796875 C186.74423692 131.73633784 188.28625087 155.88457352 183.24658203 179.69140625 C178.81995101 198.93537485 170.72116793 218.82807292 159.25878906 234.96044922 C156.25146307 239.07235533 156.25146307 239.07235533 156.20703125 244 C157.82079394 247.00634978 159.50715155 249.88315265 161.37109375 252.7421875 C178.79759816 280.24802182 190.83936718 314.26015349 184.22216797 347.03027344 C179.5517957 367.62912719 167.55343693 385.24909484 149.68359375 396.7421875 C147.39169104 398.15855945 145.07827458 399.51611212 142.74609375 400.8671875 C141.51826172 401.58841797 141.51826172 401.58841797 140.265625 402.32421875 C130.65389206 407.53539926 115.84713314 414.43402862 104.74609375 411.8671875 C100.37737067 409.68282596 97.26398164 407.06366732 94.74609375 402.8671875 C93.47911855 398.25921604 93.50375178 394.72251212 94.80859375 390.1171875 C99.2434606 382.67805601 105.06222114 380.76981887 112.99609375 378.4296875 C127.83996976 373.73893624 140.79493936 366.55198532 148.56640625 352.4140625 C157.07837873 334.03722125 153.75697432 314.09400121 147.2734375 295.6484375 C144.85770735 289.42953137 141.76719248 283.51776985 138.66308594 277.62060547 C137.32097062 275.05429231 136.03321064 272.46140757 134.74609375 269.8671875 C132.69335029 269.63261208 132.69335029 269.63261208 131.51171875 271.08984375 C131.0115625 271.69699219 130.51140625 272.30414063 129.99609375 272.9296875 C121.21533377 283.23195704 111.98778367 293.00677813 101.74609375 301.8671875 C99.99350108 303.44765053 98.24350407 305.03099658 96.49609375 306.6171875 C86.19311652 315.8671875 86.19311652 315.8671875 83.74609375 315.8671875 C83.66157959 316.44758789 83.57706543 317.02798828 83.48999023 317.62597656 C75.0181148 374.59337472 54.63907463 443.75940675 6.08300781 480.11230469 C-2.51309047 486.37377551 -11.18690221 491.31619539 -21.25390625 494.8671875 C-22.20652344 495.20621094 -23.15914062 495.54523438 -24.140625 495.89453125 C-45.15297835 501.98222241 -67.63057912 498.17190803 -86.53515625 487.99609375 C-113.51626111 472.86720695 -133.38730954 445.45692085 -146.25390625 417.8671875 C-146.25390625 417.2071875 -146.25390625 416.5471875 -146.25390625 415.8671875 C-147.2397168 415.88289795 -148.22552734 415.8986084 -149.24121094 415.91479492 C-186.36020546 416.45398847 -186.36020546 416.45398847 -202.25390625 412.8671875 C-203.25357422 412.6503833 -203.25357422 412.6503833 -204.2734375 412.42919922 C-229.37816318 406.84005541 -251.88180589 394.4715026 -266.34765625 372.71875 C-279.54688977 351.66909192 -280.82274599 326.67764943 -275.71582031 302.84716797 C-274.3476157 296.98240084 -273.02196393 291.72591481 -268.81640625 287.3046875 C-263.7681177 284.47272075 -260.14218503 283.25805521 -254.25390625 283.8671875 C-248.95561569 285.82211232 -245.8395505 288.79534686 -243.25390625 293.8671875 C-241.85260303 299.88900405 -242.7992335 304.5025539 -244.19140625 310.3671875 C-247.83337669 327.17485794 -247.49198654 342.232937 -238.12109375 357.18359375 C-227.06103834 373.07953112 -207.68560649 379.45559209 -189.37890625 382.7421875 C-179.71245889 384.31937301 -170.01582635 384.14231468 -160.25390625 383.8671875 C-160.42929932 383.32755371 -160.60469238 382.78791992 -160.78540039 382.23193359 C-164.72336418 369.99834993 -168.15841137 357.69537141 -171.06640625 345.1796875 C-171.35588135 343.9407373 -171.64535645 342.70178711 -171.94360352 341.42529297 C-173.47040294 334.74223269 -174.77655375 328.08885723 -175.73925781 321.30029297 C-177.22091665 314.2954486 -184.28550184 310.30252878 -189.546875 306.09765625 C-192.42145605 303.72913421 -195.00258471 301.21445874 -197.5859375 298.5390625 C-199.36191216 296.75892865 -201.21939574 295.12783894 -203.12890625 293.4921875 C-209.6450164 287.85833597 -215.67030046 281.7385791 -221.265625 275.19140625 C-222.79171882 273.40746554 -224.34032333 271.64276175 -225.8984375 269.88671875 C-255.28704867 236.58552445 -280.73427076 193.95610763 -278.42236328 148.09521484 C-276.83274359 127.07076664 -267.1393156 107.11628348 -251.28125 93.1640625 C-234.3946333 79.13877444 -212.74354791 71.90281778 -191.25390625 68.8671875 C-190.57602051 68.77074951 -189.89813477 68.67431152 -189.19970703 68.57495117 C-180.54335095 67.5199983 -171.83276015 67.75809111 -163.12890625 67.8046875 C-161.48828262 67.80971313 -159.84765749 67.81427415 -158.20703125 67.81835938 C-154.22261883 67.82927945 -150.23827935 67.84648532 -146.25390625 67.8671875 C-145.96507568 66.95960693 -145.67624512 66.05202637 -145.37866211 65.11694336 C-135.4853705 36.53226685 -109.1879627 6.64944042 -82.15136719 -6.5 C-54.67607757 -19.33867144 -25.19068061 -16.51153855 0 0 Z M-236.25390625 122.8671875 C-246.37711489 136.05399875 -248.80747698 150.33329479 -246.79296875 166.5859375 C-239.45821038 206.97025416 -211.53181006 242.38521788 -182.25390625 269.8671875 C-181.92390625 269.8671875 -181.59390625 269.8671875 -181.25390625 269.8671875 C-181.25914307 268.97862061 -181.26437988 268.09005371 -181.26977539 267.17456055 C-181.56298489 209.47167311 -176.7208251 154.1626936 -159.25390625 98.8671875 C-187.08305433 98.12617468 -216.1889904 101.42196704 -236.25390625 122.8671875 Z M-3.25390625 109.8671875 C0.37698343 114.19250963 4.91120722 116.16166583 9.87109375 118.6171875 C38.27249772 133.10591078 64.3243285 151.45446716 88.74609375 171.8671875 C89.26220215 172.29692871 89.77831055 172.72666992 90.31005859 173.16943359 C97.62669188 179.28010045 104.72147565 185.60529143 111.68359375 192.1171875 C112.3811377 192.76631104 113.07868164 193.41543457 113.79736328 194.08422852 C118.41545905 198.4418305 122.64206202 203.02536654 126.74609375 207.8671875 C127.89170417 209.20071237 129.03752668 210.53405507 130.18359375 211.8671875 C131.02921875 212.8571875 131.87484375 213.8471875 132.74609375 214.8671875 C137.08513767 213.42083953 138.07537397 210.16360816 140.05859375 206.3046875 C140.45449707 205.5425293 140.85040039 204.78037109 141.25830078 203.99511719 C152.00096695 182.85871433 158.32071841 160.21109773 151.74609375 136.8671875 C147.04667216 123.80095256 136.7061498 114.5327123 124.6328125 108.24609375 C86.18691904 90.46431373 35.73566337 98.02297231 -3.25390625 109.8671875 Z M-127.25390625 101.8671875 C-162.65442588 187.07754091 -158.58665565 294.95579789 -128.25390625 380.8671875 C-124.43901908 381.84759284 -121.71681973 381.79989478 -117.87890625 380.96875 C-116.82646729 380.7416333 -115.77402832 380.5145166 -114.68969727 380.28051758 C-113.55588623 380.02036865 -112.4220752 379.76021973 -111.25390625 379.4921875 C-109.46714478 379.08552856 -109.46714478 379.08552856 -107.64428711 378.6706543 C-49.03272604 364.90874704 6.03982739 337.38255487 53.74609375 300.8671875 C54.74406982 300.10680176 54.74406982 300.10680176 55.76220703 299.33105469 C62.4961116 294.1837079 69.03845592 288.88806026 75.26953125 283.1328125 C77.27762064 281.29575912 79.31481527 279.5187009 81.37890625 277.74609375 C86.54906224 273.23231229 91.39294854 268.40435125 96.24609375 263.5546875 C97.14457031 262.66845703 98.04304687 261.78222656 98.96875 260.86914062 C104.67313949 255.17720614 109.86111753 249.27655959 114.74609375 242.8671875 C113.54430995 239.51981997 112.35253438 237.08936007 109.90234375 234.51171875 C109.32452148 233.89820557 108.74669922 233.28469238 108.15136719 232.65258789 C107.52262695 232.00153076 106.89388672 231.35047363 106.24609375 230.6796875 C105.26044434 229.64606079 105.26044434 229.64606079 104.25488281 228.59155273 C102.09624146 226.33922211 99.92346586 224.10141005 97.74609375 221.8671875 C96.61204102 220.70026367 96.61204102 220.70026367 95.45507812 219.50976562 C86.91771527 210.75663118 78.39105704 202.3935183 68.74609375 194.8671875 C66.88918628 193.28706942 65.03517899 191.70353884 63.18359375 190.1171875 C15.1967739 150.08673156 -63.01653126 101.8671875 -127.25390625 101.8671875 Z M37.93359375 348.6171875 C28.46877034 354.8271849 18.63251053 360.36212403 8.74609375 365.8671875 C7.99295898 366.29112793 7.23982422 366.71506836 6.46386719 367.15185547 C-31.11813076 388.19947102 -72.24443836 401.95089227 -114.25390625 410.8671875 C-107.79959394 423.4973908 -100.05367822 434.62119124 -90.25390625 444.8671875 C-89.56941406 445.62644531 -88.88492188 446.38570313 -88.1796875 447.16796875 C-77.70734655 458.37589003 -64.26047713 466.62674031 -48.71264648 467.38476562 C-31.08559498 467.72406654 -17.56779059 459.91158121 -4.97167969 448.10229492 C17.64016979 426.06411414 30.28553391 396.48466186 40.24609375 367.0546875 C40.73553467 365.61585205 40.73553467 365.61585205 41.23486328 364.14794922 C43.31748263 357.79147134 44.7139911 351.47408683 45.74609375 344.8671875 C42.53397048 344.8671875 40.57379984 346.85078627 37.93359375 348.6171875 Z " fill="#D45DFF" transform="translate(302.25390625,14.1328125)"/>
<path d="M0 0 C3.65923606 3.00023179 6.96547969 6.27939792 10.24316406 9.68798828 C10.90703125 10.34412109 11.57089844 11.00025391 12.25488281 11.67626953 C27.03377702 27.1858057 30.77853176 46.91867522 30.51660156 67.57861328 C30.01110376 83.90469069 23.13488344 99.55907563 12.24316406 111.68798828 C11.51484375 112.50912109 10.78652344 113.33025391 10.03613281 114.17626953 C-2.4297171 127.44766709 -20.06081182 136.38533201 -38.42871094 136.98876953 C-61.69972572 137.21661889 -79.98262212 132.38116206 -97.31933594 116.31298828 C-98.12371094 115.44673828 -98.92808594 114.58048828 -99.75683594 113.68798828 C-100.34980469 113.11177734 -100.94277344 112.53556641 -101.55371094 111.94189453 C-114.03949745 99.14154363 -120.51475004 80.30811536 -120.78857422 62.64013672 C-120.50886131 42.00026861 -113.39966144 24.24998421 -99.38183594 9.12548828 C-98.51558594 8.32111328 -97.64933594 7.51673828 -96.75683594 6.68798828 C-95.89251953 5.79853516 -95.89251953 5.79853516 -95.01074219 4.89111328 C-70.45636788 -19.0598454 -27.15372548 -20.27850482 0 0 Z M-73.75683594 27.68798828 C-74.37300781 28.16623047 -74.98917969 28.64447266 -75.62402344 29.13720703 C-84.22857244 36.72833137 -88.56756686 48.14152651 -89.66308594 59.32080078 C-90.01949117 72.1216888 -85.33206438 84.14977126 -76.69433594 93.62548828 C-66.24685767 103.26238634 -54.1501913 106.19008863 -40.31933594 105.96533203 C-28.94023226 105.49587394 -19.30401007 99.66388751 -11.56933594 91.56298828 C-2.14054938 80.45587771 0.15270863 69.08462468 -0.53466797 54.96630859 C-1.71552284 42.85670675 -9.46608662 32.85111759 -18.50683594 25.25830078 C-35.70105686 13.25816743 -57.61742661 15.07715703 -73.75683594 27.68798828 Z " fill="#D45DFF" transform="translate(300.7568359375,194.31201171875)"/>
</svg>
